<svg xmlns="http://www.w3.org/2000/svg" xmlns:xlink="http://www.w3.org/1999/xlink" width="500" zoomAndPan="magnify" viewBox="0 0 375 374.999991" height="500" preserveAspectRatio="xMidYMid meet" version="1.0"><defs><clipPath id="617d8b2646"><path d="M 72 39 L 302.972656 39 L 302.972656 321.75 L 72 321.75 Z M 72 39 " clip-rule="nonzero"/></clipPath></defs><g clip-path="url(#617d8b2646)"><path fill="#5e17eb" d="M 212.746094 303.800781 L 210.808594 311.644531 C 209.460938 317.09375 206.21875 321.859375 200.59375 321.859375 L 174.398438 321.859375 C 168.773438 321.859375 165.523438 317.09375 164.179688 311.644531 L 162.246094 303.800781 C 162.121094 303.289062 162.050781 302.773438 162.042969 302.246094 C 162.035156 301.722656 162.082031 301.203125 162.195312 300.691406 C 162.304688 300.175781 162.46875 299.679688 162.691406 299.207031 C 162.914062 298.730469 163.1875 298.285156 163.511719 297.871094 C 163.835938 297.457031 164.203125 297.085938 164.613281 296.757812 C 165.023438 296.429688 165.460938 296.148438 165.9375 295.921875 C 166.410156 295.691406 166.902344 295.519531 167.414062 295.402344 C 167.925781 295.289062 168.445312 295.230469 168.96875 295.234375 L 206.023438 295.234375 C 206.546875 295.230469 207.066406 295.289062 207.578125 295.40625 C 208.089844 295.523438 208.582031 295.695312 209.054688 295.921875 C 209.527344 296.152344 209.96875 296.429688 210.375 296.761719 C 210.785156 297.089844 211.152344 297.460938 211.476562 297.875 C 211.800781 298.289062 212.074219 298.730469 212.296875 299.207031 C 212.519531 299.683594 212.683594 300.175781 212.796875 300.691406 C 212.90625 301.203125 212.957031 301.722656 212.949219 302.25 C 212.9375 302.773438 212.871094 303.289062 212.746094 303.800781 M 255.113281 219.101562 C 255.566406 219.101562 256.015625 219.054688 256.460938 218.960938 C 256.90625 218.871094 257.335938 218.738281 257.753906 218.566406 C 258.175781 218.390625 258.570312 218.175781 258.949219 217.925781 C 259.324219 217.671875 259.671875 217.386719 259.996094 217.0625 C 260.316406 216.742188 260.601562 216.394531 260.855469 216.019531 C 261.105469 215.640625 261.320312 215.242188 261.496094 214.824219 C 261.667969 214.40625 261.800781 213.976562 261.894531 213.53125 C 261.984375 213.085938 262.03125 212.636719 262.03125 212.183594 L 262.03125 156.1875 C 262.027344 155.738281 261.976562 155.289062 261.886719 154.847656 C 261.792969 154.40625 261.660156 153.976562 261.484375 153.558594 C 261.308594 153.144531 261.09375 152.75 260.839844 152.375 C 260.585938 152 260.300781 151.652344 259.980469 151.335938 C 259.660156 151.015625 259.3125 150.734375 258.9375 150.480469 C 258.558594 150.230469 258.164062 150.019531 257.746094 149.84375 C 257.328125 149.671875 256.898438 149.539062 256.457031 149.449219 C 256.015625 149.359375 255.566406 149.316406 255.113281 149.3125 C 210.03125 149.3125 164.949219 149.3125 119.871094 149.3125 C 119.417969 149.316406 118.96875 149.363281 118.523438 149.453125 C 118.078125 149.542969 117.648438 149.675781 117.230469 149.851562 C 116.8125 150.023438 116.414062 150.238281 116.035156 150.492188 C 115.660156 150.742188 115.3125 151.03125 114.992188 151.351562 C 114.667969 151.671875 114.382812 152.019531 114.128906 152.394531 C 113.878906 152.773438 113.664062 153.171875 113.488281 153.589844 C 113.316406 154.007812 113.183594 154.4375 113.09375 154.882812 C 113 155.328125 112.953125 155.777344 112.953125 156.230469 L 112.953125 212.183594 C 112.953125 212.640625 113 213.089844 113.09375 213.535156 C 113.183594 213.984375 113.316406 214.414062 113.492188 214.835938 C 113.671875 215.253906 113.886719 215.652344 114.140625 216.03125 C 114.394531 216.410156 114.683594 216.757812 115.003906 217.078125 C 115.328125 217.398438 115.679688 217.6875 116.058594 217.9375 C 116.4375 218.191406 116.835938 218.402344 117.257812 218.578125 C 117.679688 218.75 118.113281 218.882812 118.558594 218.96875 C 119.003906 219.058594 119.457031 219.101562 119.910156 219.101562 Z M 222.824219 168.945312 C 224.511719 168.941406 226.136719 169.265625 227.695312 169.914062 C 227.40625 170.125 227.144531 170.367188 226.910156 170.636719 C 226.671875 170.90625 226.46875 171.195312 226.296875 171.507812 C 226.121094 171.824219 225.984375 172.152344 225.882812 172.492188 C 225.78125 172.835938 225.71875 173.1875 225.691406 173.542969 C 225.664062 173.902344 225.675781 174.257812 225.726562 174.609375 C 225.777344 174.964844 225.863281 175.308594 225.988281 175.644531 C 226.113281 175.980469 226.269531 176.300781 226.464844 176.601562 C 226.65625 176.902344 226.882812 177.179688 227.132812 177.433594 C 227.386719 177.683594 227.664062 177.910156 227.964844 178.101562 C 228.265625 178.292969 228.585938 178.453125 228.921875 178.578125 C 229.257812 178.703125 229.601562 178.789062 229.957031 178.839844 C 230.308594 178.890625 230.664062 178.902344 231.023438 178.875 C 231.378906 178.847656 231.730469 178.785156 232.070312 178.683594 C 232.414062 178.582031 232.742188 178.441406 233.058594 178.269531 C 233.371094 178.097656 233.660156 177.894531 233.929688 177.65625 C 234.199219 177.421875 234.441406 177.160156 234.652344 176.871094 C 234.828125 177.292969 234.976562 177.71875 235.105469 178.15625 C 235.230469 178.59375 235.335938 179.035156 235.417969 179.480469 C 235.496094 179.929688 235.554688 180.378906 235.585938 180.832031 C 235.621094 181.285156 235.628906 181.738281 235.613281 182.191406 C 235.597656 182.644531 235.554688 183.097656 235.492188 183.546875 C 235.429688 183.996094 235.339844 184.441406 235.230469 184.882812 C 235.121094 185.324219 234.984375 185.757812 234.828125 186.183594 C 234.671875 186.609375 234.492188 187.027344 234.289062 187.433594 C 234.089844 187.839844 233.867188 188.234375 233.621094 188.617188 C 233.378906 189.003906 233.113281 189.371094 232.832031 189.726562 C 232.546875 190.082031 232.246094 190.421875 231.929688 190.746094 C 231.609375 191.070312 231.273438 191.375 230.921875 191.660156 C 230.570312 191.949219 230.203125 192.21875 229.824219 192.464844 C 229.445312 192.714844 229.050781 192.941406 228.648438 193.148438 C 228.242188 193.355469 227.828125 193.542969 227.40625 193.703125 C 226.980469 193.867188 226.550781 194.007812 226.109375 194.125 C 225.671875 194.242188 225.226562 194.335938 224.777344 194.40625 C 224.328125 194.472656 223.878906 194.519531 223.425781 194.542969 C 222.96875 194.5625 222.515625 194.5625 222.0625 194.535156 C 221.609375 194.507812 221.160156 194.457031 220.710938 194.382812 C 220.261719 194.308594 219.820312 194.210938 219.382812 194.085938 C 218.945312 193.964844 218.515625 193.820312 218.09375 193.652344 C 217.667969 193.484375 217.257812 193.296875 216.855469 193.085938 C 216.453125 192.875 216.0625 192.640625 215.6875 192.390625 C 215.308594 192.136719 214.945312 191.863281 214.597656 191.574219 C 214.25 191.28125 213.917969 190.972656 213.601562 190.644531 C 213.285156 190.316406 212.988281 189.976562 212.710938 189.617188 C 212.429688 189.257812 212.171875 188.886719 211.933594 188.5 C 211.691406 188.113281 211.472656 187.714844 211.277344 187.308594 C 211.078125 186.898438 210.90625 186.480469 210.753906 186.050781 C 210.601562 185.625 210.46875 185.1875 210.363281 184.746094 C 210.257812 184.304688 210.175781 183.859375 210.117188 183.410156 C 210.058594 182.957031 210.023438 182.503906 210.011719 182.050781 C 210 181.597656 210.015625 181.144531 210.050781 180.691406 C 210.089844 180.238281 210.152344 179.789062 210.238281 179.34375 C 210.324219 178.898438 210.429688 178.457031 210.5625 178.019531 C 210.695312 177.585938 210.851562 177.160156 211.027344 176.742188 C 211.207031 176.324219 211.40625 175.917969 211.625 175.519531 C 211.847656 175.121094 212.089844 174.738281 212.351562 174.367188 C 212.613281 173.996094 212.894531 173.640625 213.195312 173.300781 C 213.492188 172.957031 213.808594 172.632812 214.144531 172.324219 C 214.480469 172.019531 214.828125 171.730469 215.195312 171.457031 C 215.558594 171.1875 215.9375 170.9375 216.328125 170.707031 C 216.722656 170.476562 217.125 170.269531 217.539062 170.082031 C 217.953125 169.894531 218.375 169.730469 218.804688 169.589844 C 219.238281 169.445312 219.675781 169.328125 220.121094 169.230469 C 220.5625 169.136719 221.011719 169.0625 221.464844 169.015625 C 221.914062 168.96875 222.367188 168.945312 222.824219 168.945312 Z M 152.167969 168.945312 C 153.859375 168.941406 155.480469 169.265625 157.039062 169.914062 C 156.753906 170.125 156.492188 170.367188 156.253906 170.636719 C 156.019531 170.90625 155.816406 171.195312 155.644531 171.507812 C 155.46875 171.824219 155.332031 172.152344 155.230469 172.492188 C 155.128906 172.835938 155.0625 173.1875 155.035156 173.542969 C 155.011719 173.902344 155.023438 174.257812 155.074219 174.609375 C 155.121094 174.964844 155.210938 175.308594 155.335938 175.644531 C 155.460938 175.980469 155.617188 176.300781 155.8125 176.601562 C 156.003906 176.902344 156.226562 177.179688 156.480469 177.433594 C 156.734375 177.683594 157.011719 177.910156 157.3125 178.101562 C 157.613281 178.292969 157.933594 178.453125 158.265625 178.578125 C 158.601562 178.703125 158.949219 178.789062 159.300781 178.839844 C 159.65625 178.890625 160.011719 178.902344 160.367188 178.875 C 160.726562 178.847656 161.074219 178.785156 161.417969 178.683594 C 161.761719 178.582031 162.089844 178.441406 162.402344 178.269531 C 162.71875 178.097656 163.007812 177.894531 163.277344 177.65625 C 163.546875 177.421875 163.789062 177.160156 164 176.871094 C 164.171875 177.292969 164.324219 177.71875 164.449219 178.15625 C 164.578125 178.589844 164.683594 179.03125 164.761719 179.480469 C 164.84375 179.925781 164.898438 180.375 164.929688 180.828125 C 164.964844 181.28125 164.972656 181.734375 164.957031 182.1875 C 164.941406 182.640625 164.902344 183.09375 164.835938 183.542969 C 164.773438 183.992188 164.683594 184.4375 164.574219 184.878906 C 164.464844 185.316406 164.328125 185.75 164.171875 186.175781 C 164.015625 186.601562 163.835938 187.019531 163.632812 187.425781 C 163.433594 187.832031 163.210938 188.226562 162.964844 188.609375 C 162.722656 188.992188 162.457031 189.363281 162.175781 189.71875 C 161.894531 190.074219 161.59375 190.414062 161.273438 190.734375 C 160.953125 191.058594 160.617188 191.363281 160.265625 191.652344 C 159.917969 191.9375 159.550781 192.207031 159.171875 192.453125 C 158.789062 192.703125 158.398438 192.929688 157.996094 193.136719 C 157.589844 193.34375 157.175781 193.53125 156.753906 193.691406 C 156.328125 193.855469 155.898438 193.996094 155.457031 194.109375 C 155.019531 194.226562 154.574219 194.320312 154.128906 194.390625 C 153.679688 194.460938 153.226562 194.507812 152.773438 194.527344 C 152.320312 194.550781 151.867188 194.546875 151.414062 194.519531 C 150.960938 194.492188 150.511719 194.441406 150.0625 194.367188 C 149.613281 194.292969 149.171875 194.195312 148.734375 194.074219 C 148.296875 193.953125 147.867188 193.808594 147.445312 193.640625 C 147.023438 193.472656 146.613281 193.285156 146.210938 193.070312 C 145.808594 192.859375 145.417969 192.628906 145.042969 192.375 C 144.664062 192.125 144.300781 191.851562 143.953125 191.558594 C 143.605469 191.269531 143.273438 190.960938 142.957031 190.632812 C 142.644531 190.308594 142.34375 189.964844 142.066406 189.605469 C 141.789062 189.246094 141.527344 188.875 141.289062 188.488281 C 141.050781 188.105469 140.832031 187.707031 140.636719 187.296875 C 140.4375 186.890625 140.261719 186.46875 140.109375 186.042969 C 139.957031 185.617188 139.828125 185.179688 139.722656 184.738281 C 139.617188 184.296875 139.535156 183.851562 139.476562 183.402344 C 139.414062 182.953125 139.382812 182.5 139.371094 182.046875 C 139.359375 181.59375 139.371094 181.140625 139.410156 180.6875 C 139.449219 180.234375 139.507812 179.785156 139.59375 179.339844 C 139.679688 178.894531 139.789062 178.453125 139.921875 178.019531 C 140.054688 177.585938 140.207031 177.160156 140.386719 176.742188 C 140.5625 176.324219 140.761719 175.914062 140.984375 175.519531 C 141.203125 175.121094 141.445312 174.738281 141.707031 174.367188 C 141.96875 173.996094 142.25 173.640625 142.546875 173.300781 C 142.847656 172.957031 143.164062 172.632812 143.5 172.324219 C 143.832031 172.019531 144.183594 171.730469 144.546875 171.460938 C 144.910156 171.1875 145.289062 170.9375 145.679688 170.710938 C 146.074219 170.480469 146.476562 170.269531 146.890625 170.082031 C 147.300781 169.894531 147.726562 169.730469 148.15625 169.589844 C 148.585938 169.445312 149.023438 169.328125 149.46875 169.230469 C 149.910156 169.136719 150.359375 169.066406 150.8125 169.015625 C 151.261719 168.96875 151.714844 168.945312 152.167969 168.945312 Z M 302.988281 148.066406 L 302.988281 220.328125 C 302.984375 221.628906 302.917969 222.925781 302.789062 224.21875 C 302.65625 225.511719 302.464844 226.796875 302.207031 228.070312 C 301.949219 229.34375 301.632812 230.605469 301.253906 231.847656 C 300.871094 233.089844 300.433594 234.3125 299.933594 235.515625 C 299.433594 236.714844 298.878906 237.886719 298.261719 239.035156 C 297.648438 240.179688 296.980469 241.292969 296.257812 242.375 C 295.535156 243.453125 294.761719 244.496094 293.933594 245.5 C 293.109375 246.507812 292.238281 247.46875 291.316406 248.386719 C 290.398438 249.308594 289.4375 250.179688 288.429688 251.003906 C 287.425781 251.828125 286.382812 252.605469 285.304688 253.328125 C 284.222656 254.050781 283.109375 254.71875 281.964844 255.332031 C 280.816406 255.949219 279.644531 256.503906 278.445312 257.003906 C 277.242188 257.503906 276.023438 257.941406 274.777344 258.320312 C 273.535156 258.703125 272.277344 259.019531 271 259.277344 C 269.726562 259.53125 268.441406 259.726562 267.148438 259.859375 C 265.855469 259.988281 264.558594 260.054688 263.257812 260.058594 L 223.484375 260.058594 L 219.601562 275.90625 C 219.421875 276.660156 219.125 277.367188 218.707031 278.019531 C 218.289062 278.675781 217.773438 279.242188 217.164062 279.722656 C 216.550781 280.199219 215.878906 280.566406 215.144531 280.816406 C 214.410156 281.066406 213.652344 281.1875 212.878906 281.179688 L 162.109375 281.179688 C 161.332031 281.1875 160.574219 281.066406 159.839844 280.816406 C 159.105469 280.5625 158.433594 280.199219 157.824219 279.71875 C 157.210938 279.242188 156.699219 278.675781 156.28125 278.019531 C 155.863281 277.367188 155.5625 276.660156 155.382812 275.90625 L 151.507812 260.058594 L 111.734375 260.058594 C 110.433594 260.054688 109.136719 259.988281 107.84375 259.859375 C 106.550781 259.726562 105.265625 259.53125 103.992188 259.277344 C 102.714844 259.019531 101.457031 258.703125 100.214844 258.320312 C 98.96875 257.941406 97.75 257.503906 96.546875 257.003906 C 95.347656 256.503906 94.175781 255.949219 93.027344 255.332031 C 91.882812 254.71875 90.769531 254.050781 89.6875 253.328125 C 88.609375 252.605469 87.566406 251.828125 86.558594 251.003906 C 85.554688 250.179688 84.59375 249.308594 83.675781 248.386719 C 82.753906 247.46875 81.882812 246.507812 81.058594 245.5 C 80.230469 244.496094 79.457031 243.453125 78.734375 242.375 C 78.011719 241.292969 77.34375 240.179688 76.726562 239.035156 C 76.113281 237.886719 75.558594 236.714844 75.058594 235.515625 C 74.558594 234.3125 74.121094 233.089844 73.738281 231.847656 C 73.359375 230.605469 73.042969 229.34375 72.785156 228.070312 C 72.527344 226.796875 72.335938 225.511719 72.203125 224.21875 C 72.074219 222.925781 72.007812 221.628906 72.003906 220.328125 L 72.003906 147.996094 C 72.007812 146.695312 72.074219 145.398438 72.203125 144.105469 C 72.335938 142.8125 72.527344 141.527344 72.785156 140.253906 C 73.042969 138.980469 73.359375 137.71875 73.738281 136.476562 C 74.121094 135.234375 74.558594 134.011719 75.058594 132.808594 C 75.558594 131.609375 76.113281 130.4375 76.726562 129.289062 C 77.34375 128.144531 78.011719 127.03125 78.734375 125.949219 C 79.457031 124.871094 80.230469 123.828125 81.058594 122.824219 C 81.882812 121.816406 82.753906 120.855469 83.675781 119.9375 C 84.59375 119.015625 85.554688 118.144531 86.558594 117.320312 C 87.566406 116.496094 88.609375 115.71875 89.6875 114.996094 C 90.769531 114.273438 91.882812 113.605469 93.027344 112.992188 C 94.175781 112.375 95.347656 111.820312 96.546875 111.320312 C 97.75 110.820312 98.96875 110.382812 100.214844 110.003906 C 101.457031 109.621094 102.714844 109.304688 103.992188 109.046875 C 105.265625 108.792969 106.550781 108.597656 107.84375 108.464844 C 109.136719 108.335938 110.433594 108.269531 111.734375 108.265625 L 142.132812 108.265625 L 133.582031 72.671875 C 132.917969 72.636719 132.261719 72.5625 131.609375 72.449219 C 130.957031 72.335938 130.316406 72.1875 129.679688 71.996094 C 129.046875 71.808594 128.425781 71.582031 127.816406 71.320312 C 127.210938 71.058594 126.617188 70.761719 126.046875 70.429688 C 125.472656 70.097656 124.921875 69.734375 124.390625 69.335938 C 123.863281 68.941406 123.359375 68.511719 122.878906 68.058594 C 122.398438 67.601562 121.949219 67.117188 121.527344 66.609375 C 121.105469 66.097656 120.710938 65.566406 120.351562 65.007812 C 119.992188 64.453125 119.667969 63.878906 119.375 63.285156 C 119.085938 62.691406 118.828125 62.082031 118.609375 61.457031 C 118.390625 60.832031 118.207031 60.195312 118.0625 59.550781 C 117.917969 58.90625 117.8125 58.253906 117.742188 57.59375 C 117.675781 56.9375 117.648438 56.277344 117.65625 55.613281 C 117.667969 54.953125 117.714844 54.292969 117.804688 53.636719 C 117.890625 52.980469 118.019531 52.332031 118.183594 51.691406 C 118.347656 51.050781 118.546875 50.421875 118.785156 49.800781 C 119.023438 49.183594 119.300781 48.585938 119.609375 48 C 119.917969 47.414062 120.261719 46.847656 120.636719 46.304688 C 121.015625 45.757812 121.421875 45.238281 121.859375 44.742188 C 122.296875 44.246094 122.761719 43.777344 123.253906 43.335938 C 123.746094 42.894531 124.265625 42.480469 124.808594 42.101562 C 125.347656 41.722656 125.910156 41.375 126.492188 41.058594 C 127.074219 40.746094 127.675781 40.464844 128.289062 40.222656 C 128.90625 39.980469 129.535156 39.773438 130.171875 39.601562 C 130.8125 39.433594 131.460938 39.300781 132.117188 39.207031 C 132.773438 39.117188 133.429688 39.0625 134.09375 39.046875 C 134.753906 39.03125 135.414062 39.054688 136.074219 39.117188 C 136.730469 39.179688 137.386719 39.28125 138.03125 39.417969 C 138.679688 39.558594 139.316406 39.738281 139.941406 39.953125 C 140.566406 40.167969 141.179688 40.417969 141.777344 40.703125 C 142.371094 40.992188 142.949219 41.3125 143.507812 41.667969 C 144.066406 42.023438 144.601562 42.410156 145.117188 42.828125 C 145.628906 43.246094 146.117188 43.691406 146.578125 44.167969 C 147.035156 44.644531 147.46875 45.144531 147.867188 45.671875 C 148.269531 46.199219 148.640625 46.746094 148.976562 47.316406 C 149.3125 47.886719 149.613281 48.472656 149.878906 49.078125 C 150.148438 49.683594 150.378906 50.304688 150.574219 50.9375 C 150.765625 51.570312 150.921875 52.210938 151.039062 52.863281 C 151.160156 53.515625 151.238281 54.171875 151.28125 54.832031 C 151.320312 55.492188 151.320312 56.152344 151.285156 56.8125 C 151.246094 57.476562 151.171875 58.132812 151.058594 58.78125 C 150.941406 59.433594 150.789062 60.078125 150.601562 60.710938 C 150.410156 61.347656 150.183594 61.964844 149.917969 62.574219 C 149.65625 63.179688 149.355469 63.769531 149.023438 64.34375 C 148.691406 64.914062 148.324219 65.464844 147.925781 65.992188 C 147.527344 66.523438 147.097656 67.027344 146.640625 67.503906 C 146.183594 67.980469 145.699219 68.433594 145.1875 68.851562 C 144.679688 69.273438 144.144531 69.664062 143.589844 70.023438 L 156.21875 108.300781 L 218.773438 108.300781 L 231.375 70.023438 C 230.820312 69.664062 230.285156 69.273438 229.773438 68.851562 C 229.261719 68.429688 228.777344 67.980469 228.320312 67.503906 C 227.863281 67.023438 227.433594 66.519531 227.035156 65.992188 C 226.636719 65.464844 226.269531 64.914062 225.9375 64.339844 C 225.605469 63.769531 225.304688 63.179688 225.042969 62.570312 C 224.777344 61.964844 224.550781 61.34375 224.359375 60.707031 C 224.167969 60.074219 224.015625 59.429688 223.902344 58.777344 C 223.785156 58.125 223.710938 57.46875 223.671875 56.808594 C 223.636719 56.148438 223.636719 55.484375 223.679688 54.824219 C 223.71875 54.164062 223.800781 53.507812 223.917969 52.855469 C 224.035156 52.203125 224.191406 51.5625 224.386719 50.929688 C 224.582031 50.292969 224.8125 49.675781 225.078125 49.070312 C 225.34375 48.464844 225.648438 47.875 225.984375 47.304688 C 226.320312 46.734375 226.691406 46.1875 227.089844 45.660156 C 227.492188 45.132812 227.921875 44.628906 228.382812 44.15625 C 228.84375 43.679688 229.332031 43.230469 229.84375 42.8125 C 230.359375 42.394531 230.894531 42.007812 231.453125 41.652344 C 232.011719 41.296875 232.589844 40.976562 233.1875 40.6875 C 233.785156 40.402344 234.394531 40.152344 235.023438 39.9375 C 235.648438 39.722656 236.285156 39.542969 236.933594 39.40625 C 237.582031 39.265625 238.234375 39.164062 238.894531 39.101562 C 239.554688 39.039062 240.214844 39.015625 240.875 39.03125 C 241.539062 39.046875 242.195312 39.101562 242.851562 39.195312 C 243.507812 39.289062 244.15625 39.417969 244.796875 39.589844 C 245.4375 39.757812 246.066406 39.964844 246.679688 40.210938 C 247.296875 40.453125 247.894531 40.734375 248.476562 41.046875 C 249.0625 41.363281 249.625 41.710938 250.164062 42.089844 C 250.707031 42.472656 251.226562 42.882812 251.71875 43.324219 C 252.210938 43.765625 252.675781 44.238281 253.113281 44.734375 C 253.550781 45.230469 253.960938 45.75 254.335938 46.296875 C 254.710938 46.839844 255.054688 47.40625 255.363281 47.992188 C 255.675781 48.578125 255.949219 49.179688 256.1875 49.796875 C 256.425781 50.414062 256.625 51.042969 256.792969 51.6875 C 256.957031 52.328125 257.082031 52.976562 257.167969 53.632812 C 257.257812 54.289062 257.304688 54.949219 257.316406 55.613281 C 257.324219 56.273438 257.296875 56.933594 257.226562 57.59375 C 257.160156 58.253906 257.054688 58.90625 256.90625 59.550781 C 256.761719 60.195312 256.582031 60.832031 256.359375 61.457031 C 256.140625 62.082031 255.882812 62.691406 255.59375 63.285156 C 255.300781 63.878906 254.972656 64.457031 254.613281 65.011719 C 254.253906 65.566406 253.863281 66.101562 253.441406 66.609375 C 253.015625 67.121094 252.566406 67.601562 252.085938 68.058594 C 251.605469 68.515625 251.101562 68.941406 250.570312 69.339844 C 250.039062 69.738281 249.488281 70.101562 248.914062 70.433594 C 248.34375 70.765625 247.75 71.0625 247.144531 71.324219 C 246.535156 71.585938 245.914062 71.8125 245.277344 72 C 244.644531 72.1875 244 72.339844 243.347656 72.453125 C 242.695312 72.5625 242.039062 72.636719 241.375 72.671875 L 232.859375 108.265625 L 263.257812 108.265625 C 264.558594 108.269531 265.855469 108.335938 267.152344 108.464844 C 268.445312 108.597656 269.730469 108.789062 271.007812 109.046875 C 272.28125 109.304688 273.542969 109.621094 274.789062 110.003906 C 276.03125 110.382812 277.253906 110.824219 278.457031 111.324219 C 279.65625 111.824219 280.832031 112.382812 281.980469 112.996094 C 283.125 113.609375 284.238281 114.28125 285.320312 115.003906 C 286.402344 115.730469 287.445312 116.503906 288.449219 117.332031 C 289.457031 118.15625 290.417969 119.03125 291.335938 119.953125 C 292.257812 120.871094 293.128906 121.835938 293.953125 122.84375 C 294.78125 123.847656 295.554688 124.890625 296.277344 125.972656 C 297 127.054688 297.667969 128.171875 298.28125 129.320312 C 298.894531 130.464844 299.449219 131.640625 299.949219 132.84375 C 300.449219 134.046875 300.886719 135.269531 301.265625 136.511719 C 301.644531 137.757812 301.960938 139.019531 302.214844 140.296875 C 302.472656 141.570312 302.664062 142.855469 302.792969 144.152344 C 302.921875 145.445312 302.988281 146.746094 302.988281 148.046875 Z M 302.988281 148.066406 " fill-opacity="1" fill-rule="evenodd"/></g></svg>