<?xml version="1.0" standalone="no"?><svg xmlns="http://www.w3.org/2000/svg" viewBox="0 0 1440 320"><path fill="#6f6ab2" fill-opacity="1" d="M0,64L40,64C80,64,160,64,240,90.7C320,117,400,171,480,192C560,213,640,203,720,218.7C800,235,880,277,960,261.3C1040,245,1120,171,1200,160C1280,149,1360,203,1400,229.3L1440,256L1440,320L1400,320C1360,320,1280,320,1200,320C1120,320,1040,320,960,320C880,320,800,320,720,320C640,320,560,320,480,320C400,320,320,320,240,320C160,320,80,320,40,320L0,320Z"></path></svg>